<mxfile host="65bd71144e">
    <diagram id="zH98e_USymyKDurRCKkY" name="Page-1">
        <mxGraphModel dx="5140" dy="4350" grid="0" gridSize="10" guides="1" tooltips="1" connect="1" arrows="1" fold="1" page="1" pageScale="1" pageWidth="850" pageHeight="1100" math="0" shadow="0">
            <root>
                <mxCell id="0"/>
                <mxCell id="1" parent="0"/>
                <mxCell id="31" style="edgeStyle=none;html=1;fontColor=#FF8000;entryX=0;entryY=0.5;entryDx=0;entryDy=0;entryPerimeter=0;strokeColor=#660000;fontSize=30;strokeWidth=10;" edge="1" parent="1" source="3" target="4">
                    <mxGeometry relative="1" as="geometry"/>
                </mxCell>
                <mxCell id="3" value="users" style="sketch=0;outlineConnect=0;gradientColor=none;fontColor=#545B64;strokeColor=#660000;fillColor=#FF8000;dashed=0;verticalLabelPosition=bottom;verticalAlign=top;align=center;html=1;fontSize=30;fontStyle=0;aspect=fixed;shape=mxgraph.aws4.illustration_users;pointerEvents=1;strokeWidth=10;" vertex="1" parent="1">
                    <mxGeometry x="-48" y="113" width="99" height="99" as="geometry"/>
                </mxCell>
                <mxCell id="39" style="edgeStyle=none;html=1;entryX=0.5;entryY=0;entryDx=0;entryDy=0;entryPerimeter=0;fontColor=#FF8000;strokeColor=#660000;fontSize=30;strokeWidth=10;" edge="1" parent="1" source="16" target="9">
                    <mxGeometry relative="1" as="geometry"/>
                </mxCell>
                <mxCell id="16" value="&lt;font color=&quot;#ff8000&quot; style=&quot;font-size: 30px;&quot;&gt;CLIENT&lt;/font&gt;" style="points=[[0,0],[0.25,0],[0.5,0],[0.75,0],[1,0],[1,0.25],[1,0.5],[1,0.75],[1,1],[0.75,1],[0.5,1],[0.25,1],[0,1],[0,0.75],[0,0.5],[0,0.25]];outlineConnect=0;gradientColor=none;html=1;whiteSpace=wrap;fontSize=30;fontStyle=0;container=1;pointerEvents=0;collapsible=0;recursiveResize=0;shape=mxgraph.aws4.group;grIcon=mxgraph.aws4.group_aws_cloud;strokeColor=#660000;fillColor=none;verticalAlign=top;align=left;spacingLeft=30;fontColor=#232F3E;dashed=0;strokeWidth=10;" vertex="1" parent="1">
                    <mxGeometry x="349" y="-149" width="480" height="539" as="geometry"/>
                </mxCell>
                <mxCell id="38" value="&lt;font color=&quot;#ff8000&quot; style=&quot;font-size: 30px;&quot;&gt;AWS Cloud&lt;/font&gt;" style="points=[[0,0],[0.25,0],[0.5,0],[0.75,0],[1,0],[1,0.25],[1,0.5],[1,0.75],[1,1],[0.75,1],[0.5,1],[0.25,1],[0,1],[0,0.75],[0,0.5],[0,0.25]];outlineConnect=0;gradientColor=none;html=1;whiteSpace=wrap;fontSize=30;fontStyle=0;container=1;pointerEvents=0;collapsible=0;recursiveResize=0;shape=mxgraph.aws4.group;grIcon=mxgraph.aws4.group_aws_cloud;strokeColor=#660000;fillColor=none;verticalAlign=top;align=left;spacingLeft=30;fontColor=#232F3E;dashed=0;strokeWidth=10;" vertex="1" parent="1">
                    <mxGeometry x="179" y="-349" width="2350" height="1579" as="geometry"/>
                </mxCell>
                <mxCell id="9" value="" style="sketch=0;points=[[0,0,0],[0.25,0,0],[0.5,0,0],[0.75,0,0],[1,0,0],[0,1,0],[0.25,1,0],[0.5,1,0],[0.75,1,0],[1,1,0],[0,0.25,0],[0,0.5,0],[0,0.75,0],[1,0.25,0],[1,0.5,0],[1,0.75,0]];outlineConnect=0;fontColor=#232F3E;gradientColor=#FF4F8B;gradientDirection=north;fillColor=#BC1356;strokeColor=#660000;dashed=0;verticalLabelPosition=bottom;verticalAlign=top;align=center;html=1;fontSize=30;fontStyle=0;aspect=fixed;shape=mxgraph.aws4.resourceIcon;resIcon=mxgraph.aws4.api_gateway;strokeWidth=10;" vertex="1" parent="38">
                    <mxGeometry x="371" y="949" width="78" height="78" as="geometry"/>
                </mxCell>
                <mxCell id="5" value="" style="sketch=0;points=[[0,0,0],[0.25,0,0],[0.5,0,0],[0.75,0,0],[1,0,0],[0,1,0],[0.25,1,0],[0.5,1,0],[0.75,1,0],[1,1,0],[0,0.25,0],[0,0.5,0],[0,0.75,0],[1,0.25,0],[1,0.5,0],[1,0.75,0]];outlineConnect=0;fontColor=#232F3E;gradientColor=#945DF2;gradientDirection=north;fillColor=#5A30B5;strokeColor=#660000;dashed=0;verticalLabelPosition=bottom;verticalAlign=top;align=center;html=1;fontSize=30;fontStyle=0;aspect=fixed;shape=mxgraph.aws4.resourceIcon;resIcon=mxgraph.aws4.cloudfront;strokeWidth=10;" vertex="1" parent="38">
                    <mxGeometry x="260" y="470" width="78" height="78" as="geometry"/>
                </mxCell>
                <mxCell id="6" value="" style="sketch=0;points=[[0,0,0],[0.25,0,0],[0.5,0,0],[0.75,0,0],[1,0,0],[0,1,0],[0.25,1,0],[0.5,1,0],[0.75,1,0],[1,1,0],[0,0.25,0],[0,0.5,0],[0,0.75,0],[1,0.25,0],[1,0.5,0],[1,0.75,0]];outlineConnect=0;fontColor=#232F3E;gradientColor=#60A337;gradientDirection=north;fillColor=#277116;strokeColor=#660000;dashed=0;verticalLabelPosition=bottom;verticalAlign=top;align=center;html=1;fontSize=30;fontStyle=0;aspect=fixed;shape=mxgraph.aws4.resourceIcon;resIcon=mxgraph.aws4.s3;strokeWidth=10;" vertex="1" parent="38">
                    <mxGeometry x="490" y="470" width="78" height="78" as="geometry"/>
                </mxCell>
                <mxCell id="21" value="" style="edgeStyle=none;orthogonalLoop=1;jettySize=auto;html=1;endArrow=classic;startArrow=classic;endSize=8;startSize=8;fontColor=#FF8000;exitX=1;exitY=0.5;exitDx=0;exitDy=0;exitPerimeter=0;strokeColor=#660000;fontSize=30;strokeWidth=10;" edge="1" parent="38" source="5" target="6">
                    <mxGeometry width="100" relative="1" as="geometry">
                        <mxPoint x="406" y="400" as="sourcePoint"/>
                        <mxPoint x="506" y="400" as="targetPoint"/>
                        <Array as="points"/>
                    </mxGeometry>
                </mxCell>
                <mxCell id="30" value="" style="sketch=0;points=[[0,0,0],[0.25,0,0],[0.5,0,0],[0.75,0,0],[1,0,0],[0,1,0],[0.25,1,0],[0.5,1,0],[0.75,1,0],[1,1,0],[0,0.25,0],[0,0.5,0],[0,0.75,0],[1,0.25,0],[1,0.5,0],[1,0.75,0]];outlineConnect=0;fontColor=#232F3E;gradientColor=#FF4F8B;gradientDirection=north;fillColor=#BC1356;strokeColor=#660000;dashed=0;verticalLabelPosition=bottom;verticalAlign=top;align=center;html=1;fontSize=30;fontStyle=0;aspect=fixed;shape=mxgraph.aws4.resourceIcon;resIcon=mxgraph.aws4.sqs;strokeWidth=10;" vertex="1" parent="38">
                    <mxGeometry x="580" y="949" width="78" height="78" as="geometry"/>
                </mxCell>
                <mxCell id="34" style="edgeStyle=none;html=1;entryX=0;entryY=0.5;entryDx=0;entryDy=0;entryPerimeter=0;fontColor=#FF8000;strokeColor=#660000;fontSize=30;strokeWidth=10;" edge="1" parent="38" source="9" target="30">
                    <mxGeometry relative="1" as="geometry"/>
                </mxCell>
                <mxCell id="46" value="&lt;font color=&quot;#ff8000&quot; style=&quot;font-size: 30px;&quot;&gt;Route 53&lt;/font&gt;" style="text;html=1;align=center;verticalAlign=middle;resizable=0;points=[];autosize=1;strokeColor=#660000;fillColor=none;fontColor=#FFFFFF;fontSize=30;strokeWidth=10;" vertex="1" parent="38">
                    <mxGeometry x="26" y="561" width="140" height="48" as="geometry"/>
                </mxCell>
                <mxCell id="47" value="&lt;font color=&quot;#ff8000&quot; style=&quot;font-size: 30px;&quot;&gt;CLOUDFRONT&lt;/font&gt;" style="text;html=1;align=center;verticalAlign=middle;resizable=0;points=[];autosize=1;strokeColor=#660000;fillColor=none;fontColor=#FFFFFF;fontSize=30;strokeWidth=10;" vertex="1" parent="38">
                    <mxGeometry x="188" y="561" width="226" height="48" as="geometry"/>
                </mxCell>
                <mxCell id="4" value="" style="sketch=0;points=[[0,0,0],[0.25,0,0],[0.5,0,0],[0.75,0,0],[1,0,0],[0,1,0],[0.25,1,0],[0.5,1,0],[0.75,1,0],[1,1,0],[0,0.25,0],[0,0.5,0],[0,0.75,0],[1,0.25,0],[1,0.5,0],[1,0.75,0]];outlineConnect=0;fontColor=#232F3E;gradientColor=#945DF2;gradientDirection=north;fillColor=#5A30B5;strokeColor=#660000;dashed=0;verticalLabelPosition=bottom;verticalAlign=top;align=center;html=1;fontSize=30;fontStyle=0;aspect=fixed;shape=mxgraph.aws4.resourceIcon;resIcon=mxgraph.aws4.route_53;strokeWidth=10;" vertex="1" parent="38">
                    <mxGeometry x="60" y="470" width="78" height="78" as="geometry"/>
                </mxCell>
                <mxCell id="18" style="edgeStyle=none;html=1;entryX=0;entryY=0.5;entryDx=0;entryDy=0;entryPerimeter=0;fontColor=#FF8000;strokeColor=#660000;fontSize=30;strokeWidth=10;" edge="1" parent="38" source="4" target="5">
                    <mxGeometry relative="1" as="geometry"/>
                </mxCell>
                <mxCell id="48" value="&lt;font color=&quot;#ff8000&quot; style=&quot;font-size: 30px;&quot;&gt;S3&lt;/font&gt;" style="text;html=1;align=center;verticalAlign=middle;resizable=0;points=[];autosize=1;strokeColor=#660000;fillColor=none;fontColor=#FFFFFF;fontSize=30;strokeWidth=10;" vertex="1" parent="38">
                    <mxGeometry x="503" y="546" width="55" height="48" as="geometry"/>
                </mxCell>
                <mxCell id="49" value="&lt;font color=&quot;#ff8000&quot; style=&quot;font-size: 30px;&quot;&gt;API GATEWAY&lt;/font&gt;" style="text;html=1;align=center;verticalAlign=middle;resizable=0;points=[];autosize=1;strokeColor=#660000;fillColor=none;fontColor=#FFFFFF;fontSize=30;strokeWidth=10;" vertex="1" parent="38">
                    <mxGeometry x="312" y="1031" width="219" height="48" as="geometry"/>
                </mxCell>
                <mxCell id="50" value="&lt;font color=&quot;#ff8000&quot; style=&quot;font-size: 30px;&quot;&gt;SQS&lt;/font&gt;" style="text;html=1;align=center;verticalAlign=middle;resizable=0;points=[];autosize=1;strokeColor=#660000;fillColor=none;fontColor=#FFFFFF;fontSize=30;strokeWidth=10;" vertex="1" parent="38">
                    <mxGeometry x="594" y="1041" width="81" height="48" as="geometry"/>
                </mxCell>
                <mxCell id="53" value="&lt;font color=&quot;#ff8000&quot; style=&quot;font-size: 30px;&quot;&gt;ELASTICACHE&lt;/font&gt;" style="text;html=1;align=center;verticalAlign=middle;resizable=0;points=[];autosize=1;strokeColor=#660000;fillColor=none;fontColor=#FFFFFF;fontSize=30;strokeWidth=10;" vertex="1" parent="38">
                    <mxGeometry x="1038" y="465" width="226" height="48" as="geometry"/>
                </mxCell>
                <mxCell id="12" value="" style="sketch=0;points=[[0,0,0],[0.25,0,0],[0.5,0,0],[0.75,0,0],[1,0,0],[0,1,0],[0.25,1,0],[0.5,1,0],[0.75,1,0],[1,1,0],[0,0.25,0],[0,0.5,0],[0,0.75,0],[1,0.25,0],[1,0.5,0],[1,0.75,0]];outlineConnect=0;fontColor=#232F3E;gradientColor=#4D72F3;gradientDirection=north;fillColor=#3334B9;strokeColor=#660000;dashed=0;verticalLabelPosition=bottom;verticalAlign=top;align=center;html=1;fontSize=30;fontStyle=0;aspect=fixed;shape=mxgraph.aws4.resourceIcon;resIcon=mxgraph.aws4.elasticache;strokeWidth=10;" vertex="1" parent="38">
                    <mxGeometry x="1223" y="452" width="78" height="78" as="geometry"/>
                </mxCell>
                <mxCell id="71" value="ELB" style="text;html=1;align=center;verticalAlign=middle;resizable=0;points=[];autosize=1;strokeColor=#660000;fillColor=none;fontColor=#FF8000;fontSize=30;strokeWidth=10;" vertex="1" parent="38">
                    <mxGeometry x="777" y="1019" width="75" height="48" as="geometry"/>
                </mxCell>
                <mxCell id="66" value="" style="sketch=0;points=[[0,0,0],[0.25,0,0],[0.5,0,0],[0.75,0,0],[1,0,0],[0,1,0],[0.25,1,0],[0.5,1,0],[0.75,1,0],[1,1,0],[0,0.25,0],[0,0.5,0],[0,0.75,0],[1,0.25,0],[1,0.5,0],[1,0.75,0]];outlineConnect=0;fontColor=#232F3E;gradientColor=#F78E04;gradientDirection=north;fillColor=#D05C17;strokeColor=#660000;dashed=0;verticalLabelPosition=bottom;verticalAlign=top;align=center;html=1;fontSize=30;fontStyle=0;aspect=fixed;shape=mxgraph.aws4.resourceIcon;resIcon=mxgraph.aws4.elastic_load_balancing;strokeWidth=10;" vertex="1" parent="38">
                    <mxGeometry x="760" y="939" width="78" height="78" as="geometry"/>
                </mxCell>
                <mxCell id="35" style="edgeStyle=none;html=1;entryX=0;entryY=0.5;entryDx=0;entryDy=0;fontColor=#FF8000;entryPerimeter=0;strokeColor=#660000;fontSize=30;strokeWidth=10;" edge="1" parent="38" source="30" target="66">
                    <mxGeometry relative="1" as="geometry"/>
                </mxCell>
                <mxCell id="8" value="" style="sketch=0;points=[[0,0,0],[0.25,0,0],[0.5,0,0],[0.75,0,0],[1,0,0],[0,1,0],[0.25,1,0],[0.5,1,0],[0.75,1,0],[1,1,0],[0,0.25,0],[0,0.5,0],[0,0.75,0],[1,0.25,0],[1,0.5,0],[1,0.75,0]];outlineConnect=0;fontColor=#232F3E;gradientColor=#F78E04;gradientDirection=north;fillColor=#D05C17;strokeColor=#660000;dashed=0;verticalLabelPosition=bottom;verticalAlign=top;align=center;html=1;fontSize=30;fontStyle=0;aspect=fixed;shape=mxgraph.aws4.resourceIcon;resIcon=mxgraph.aws4.eks;strokeWidth=10;" vertex="1" parent="38">
                    <mxGeometry x="1226" y="862" width="78" height="78" as="geometry"/>
                </mxCell>
                <mxCell id="7" value="" style="sketch=0;points=[[0,0,0],[0.25,0,0],[0.5,0,0],[0.75,0,0],[1,0,0],[0,1,0],[0.25,1,0],[0.5,1,0],[0.75,1,0],[1,1,0],[0,0.25,0],[0,0.5,0],[0,0.75,0],[1,0.25,0],[1,0.5,0],[1,0.75,0]];outlineConnect=0;fontColor=#232F3E;gradientColor=#F78E04;gradientDirection=north;fillColor=#D05C17;strokeColor=#660000;dashed=0;verticalLabelPosition=bottom;verticalAlign=top;align=center;html=1;fontSize=30;fontStyle=0;aspect=fixed;shape=mxgraph.aws4.resourceIcon;resIcon=mxgraph.aws4.fargate;strokeWidth=10;" vertex="1" parent="38">
                    <mxGeometry x="1226" y="960" width="78" height="78" as="geometry"/>
                </mxCell>
                <mxCell id="25" value="AZ2" style="fillColor=none;strokeColor=#660000;verticalAlign=top;fontStyle=0;fontColor=#FF8000;fontSize=30;strokeWidth=10;" vertex="1" parent="38">
                    <mxGeometry x="1116" y="799" width="298" height="293" as="geometry"/>
                </mxCell>
                <mxCell id="67" style="edgeStyle=none;html=1;entryX=0;entryY=0.5;entryDx=0;entryDy=0;fontColor=#FFFFFF;strokeColor=#660000;fontSize=30;strokeWidth=10;" edge="1" parent="38" source="66" target="25">
                    <mxGeometry relative="1" as="geometry"/>
                </mxCell>
                <mxCell id="62" value="" style="sketch=0;points=[[0,0,0],[0.25,0,0],[0.5,0,0],[0.75,0,0],[1,0,0],[0,1,0],[0.25,1,0],[0.5,1,0],[0.75,1,0],[1,1,0],[0,0.25,0],[0,0.5,0],[0,0.75,0],[1,0.25,0],[1,0.5,0],[1,0.75,0]];outlineConnect=0;fontColor=#232F3E;gradientColor=#F78E04;gradientDirection=north;fillColor=#D05C17;strokeColor=#660000;dashed=0;verticalLabelPosition=bottom;verticalAlign=top;align=center;html=1;fontSize=30;fontStyle=0;aspect=fixed;shape=mxgraph.aws4.resourceIcon;resIcon=mxgraph.aws4.eks;strokeWidth=10;" vertex="1" parent="38">
                    <mxGeometry x="1236" y="1252" width="78" height="78" as="geometry"/>
                </mxCell>
                <mxCell id="63" value="" style="sketch=0;points=[[0,0,0],[0.25,0,0],[0.5,0,0],[0.75,0,0],[1,0,0],[0,1,0],[0.25,1,0],[0.5,1,0],[0.75,1,0],[1,1,0],[0,0.25,0],[0,0.5,0],[0,0.75,0],[1,0.25,0],[1,0.5,0],[1,0.75,0]];outlineConnect=0;fontColor=#232F3E;gradientColor=#F78E04;gradientDirection=north;fillColor=#D05C17;strokeColor=#660000;dashed=0;verticalLabelPosition=bottom;verticalAlign=top;align=center;html=1;fontSize=30;fontStyle=0;aspect=fixed;shape=mxgraph.aws4.resourceIcon;resIcon=mxgraph.aws4.fargate;strokeWidth=10;" vertex="1" parent="38">
                    <mxGeometry x="1236" y="1350" width="78" height="78" as="geometry"/>
                </mxCell>
                <mxCell id="64" value="AZ1" style="fillColor=none;strokeColor=#660000;verticalAlign=top;fontStyle=0;fontColor=#FF8000;fontSize=30;strokeWidth=10;" vertex="1" parent="38">
                    <mxGeometry x="1126" y="1189" width="298" height="293" as="geometry"/>
                </mxCell>
                <mxCell id="69" value="&lt;font color=&quot;#ff8000&quot; style=&quot;font-size: 30px;&quot;&gt;Region&lt;/font&gt;" style="points=[[0,0],[0.25,0],[0.5,0],[0.75,0],[1,0],[1,0.25],[1,0.5],[1,0.75],[1,1],[0.75,1],[0.5,1],[0.25,1],[0,1],[0,0.75],[0,0.5],[0,0.25]];outlineConnect=0;gradientColor=none;html=1;whiteSpace=wrap;fontSize=30;fontStyle=0;container=1;pointerEvents=0;collapsible=0;recursiveResize=0;shape=mxgraph.aws4.group;grIcon=mxgraph.aws4.group_region;strokeColor=#660000;fillColor=none;verticalAlign=top;align=left;spacingLeft=30;fontColor=#147EBA;dashed=1;strokeWidth=10;" vertex="1" parent="38">
                    <mxGeometry x="1000" y="719" width="530" height="860" as="geometry"/>
                </mxCell>
                <mxCell id="52" value="&lt;font color=&quot;#ff8000&quot; style=&quot;font-size: 30px;&quot;&gt;EKS&lt;/font&gt;" style="text;html=1;align=center;verticalAlign=middle;resizable=0;points=[];autosize=1;strokeColor=#660000;fillColor=none;fontColor=#FFFFFF;fontSize=30;strokeWidth=10;" vertex="1" parent="69">
                    <mxGeometry x="310" y="173" width="78" height="48" as="geometry"/>
                </mxCell>
                <mxCell id="65" value="&lt;font color=&quot;#ff8000&quot; style=&quot;font-size: 30px;&quot;&gt;EKS&lt;/font&gt;" style="text;html=1;align=center;verticalAlign=middle;resizable=0;points=[];autosize=1;strokeColor=#660000;fillColor=none;fontColor=#FFFFFF;fontSize=30;strokeWidth=10;" vertex="1" parent="69">
                    <mxGeometry x="324" y="583" width="78" height="48" as="geometry"/>
                </mxCell>
                <mxCell id="68" style="edgeStyle=none;html=1;entryX=0;entryY=0.5;entryDx=0;entryDy=0;fontColor=#FFFFFF;strokeColor=#660000;fontSize=30;strokeWidth=10;" edge="1" parent="38" source="66" target="64">
                    <mxGeometry relative="1" as="geometry"/>
                </mxCell>
                <mxCell id="70" value="" style="edgeStyle=none;orthogonalLoop=1;jettySize=auto;html=1;endArrow=classic;startArrow=classic;endSize=8;startSize=8;fontColor=#FF8000;exitX=0.5;exitY=1;exitDx=0;exitDy=0;exitPerimeter=0;strokeColor=#660000;fontSize=30;strokeWidth=10;" edge="1" parent="38" source="12" target="69">
                    <mxGeometry width="100" relative="1" as="geometry">
                        <mxPoint x="1580" y="649" as="sourcePoint"/>
                        <mxPoint x="1680" y="649" as="targetPoint"/>
                        <Array as="points"/>
                    </mxGeometry>
                </mxCell>
                <mxCell id="10" value="" style="sketch=0;points=[[0,0,0],[0.25,0,0],[0.5,0,0],[0.75,0,0],[1,0,0],[0,1,0],[0.25,1,0],[0.5,1,0],[0.75,1,0],[1,1,0],[0,0.25,0],[0,0.5,0],[0,0.75,0],[1,0.25,0],[1,0.5,0],[1,0.75,0]];outlineConnect=0;fontColor=#232F3E;gradientColor=#4D72F3;gradientDirection=north;fillColor=#3334B9;strokeColor=#660000;dashed=0;verticalLabelPosition=bottom;verticalAlign=top;align=center;html=1;fontSize=30;fontStyle=0;aspect=fixed;shape=mxgraph.aws4.resourceIcon;resIcon=mxgraph.aws4.aurora;strokeWidth=10;" vertex="1" parent="38">
                    <mxGeometry x="1240" y="203" width="78" height="78" as="geometry"/>
                </mxCell>
                <mxCell id="55" value="&lt;font color=&quot;#ff8000&quot; style=&quot;font-size: 30px;&quot;&gt;AURORA GLOBAL&lt;/font&gt;" style="text;html=1;align=center;verticalAlign=middle;resizable=0;points=[];autosize=1;strokeColor=#660000;fillColor=none;fontColor=#FFFFFF;fontSize=30;strokeWidth=10;" vertex="1" parent="38">
                    <mxGeometry x="1139" y="160" width="273" height="48" as="geometry"/>
                </mxCell>
                <mxCell id="54" value="&lt;font color=&quot;#ff8000&quot; style=&quot;font-size: 30px;&quot;&gt;DYNAMO DB&lt;/font&gt;" style="text;html=1;align=center;verticalAlign=middle;resizable=0;points=[];autosize=1;strokeColor=#660000;fillColor=none;fontColor=#FFFFFF;fontSize=30;strokeWidth=10;" vertex="1" parent="38">
                    <mxGeometry x="1182" y="280" width="200" height="48" as="geometry"/>
                </mxCell>
                <mxCell id="56" value="&lt;font color=&quot;#ff8000&quot; style=&quot;font-size: 30px;&quot;&gt;DMS&lt;/font&gt;" style="text;html=1;align=center;verticalAlign=middle;resizable=0;points=[];autosize=1;strokeColor=#660000;fillColor=none;fontColor=#FFFFFF;fontSize=30;strokeWidth=10;" vertex="1" parent="38">
                    <mxGeometry x="2031.5" y="190" width="85" height="48" as="geometry"/>
                </mxCell>
                <mxCell id="75" value="&lt;font color=&quot;#ffffff&quot; style=&quot;font-size: 30px;&quot;&gt;USER&lt;/font&gt;" style="text;html=1;align=center;verticalAlign=middle;resizable=0;points=[];autosize=1;strokeColor=#660000;fillColor=none;fontColor=#FF8000;fontSize=30;strokeWidth=10;" vertex="1" parent="38">
                    <mxGeometry x="-220" y="540" width="101" height="48" as="geometry"/>
                </mxCell>
                <mxCell id="11" value="" style="outlineConnect=0;dashed=0;verticalLabelPosition=bottom;verticalAlign=top;align=center;html=1;shape=mxgraph.aws3.dynamo_db;fillColor=#2E73B8;gradientColor=none;fontSize=30;strokeWidth=10;strokeColor=#660000;" vertex="1" parent="38">
                    <mxGeometry x="1245.5" y="72" width="72" height="81" as="geometry"/>
                </mxCell>
                <mxCell id="26" value="DATABASE" style="fillColor=none;strokeColor=#660000;verticalAlign=top;fontStyle=0;fontColor=#FF8000;fontSize=30;strokeWidth=10;" vertex="1" parent="38">
                    <mxGeometry x="1121" y="8" width="300" height="350" as="geometry"/>
                </mxCell>
                <mxCell id="27" value="" style="edgeStyle=none;orthogonalLoop=1;jettySize=auto;html=1;fontColor=#FF8000;exitX=0.5;exitY=0;exitDx=0;exitDy=0;exitPerimeter=0;strokeColor=#660000;fontSize=30;strokeWidth=10;" edge="1" parent="38" source="12" target="26">
                    <mxGeometry width="100" relative="1" as="geometry">
                        <mxPoint x="1160" y="670" as="sourcePoint"/>
                        <mxPoint x="1260" y="670" as="targetPoint"/>
                        <Array as="points"/>
                    </mxGeometry>
                </mxCell>
                <mxCell id="42" value="" style="sketch=0;points=[[0,0,0],[0.25,0,0],[0.5,0,0],[0.75,0,0],[1,0,0],[0,1,0],[0.25,1,0],[0.5,1,0],[0.75,1,0],[1,1,0],[0,0.25,0],[0,0.5,0],[0,0.75,0],[1,0.25,0],[1,0.5,0],[1,0.75,0]];outlineConnect=0;fontColor=#232F3E;gradientColor=#4AB29A;gradientDirection=north;fillColor=#116D5B;strokeColor=#660000;dashed=0;verticalLabelPosition=bottom;verticalAlign=top;align=center;html=1;fontSize=30;fontStyle=0;aspect=fixed;shape=mxgraph.aws4.resourceIcon;resIcon=mxgraph.aws4.database_migration_service;strokeWidth=10;" vertex="1" parent="38">
                    <mxGeometry x="2000.5" y="18" width="145" height="145" as="geometry"/>
                </mxCell>
                <mxCell id="44" style="edgeStyle=none;html=1;entryX=1.037;entryY=0.382;entryDx=0;entryDy=0;entryPerimeter=0;fontColor=#FF8000;strokeColor=#660000;fontSize=30;strokeWidth=10;" edge="1" parent="38" source="42" target="26">
                    <mxGeometry relative="1" as="geometry"/>
                </mxCell>
                <mxCell id="43" style="edgeStyle=none;html=1;fontColor=#FF8000;strokeColor=#660000;fontSize=30;strokeWidth=10;" edge="1" parent="1" source="41" target="42">
                    <mxGeometry relative="1" as="geometry"/>
                </mxCell>
                <mxCell id="41" value="" style="aspect=fixed;html=1;points=[];align=center;image;fontSize=30;image=img/lib/azure2/integration/SQL_Data_Warehouses.svg;strokeColor=#660000;fontColor=#FF8000;strokeWidth=10;" vertex="1" parent="1">
                    <mxGeometry x="2949" y="-440" width="362.3" height="367.97" as="geometry"/>
                </mxCell>
                <mxCell id="45" value="USER" style="text;html=1;align=center;verticalAlign=middle;resizable=0;points=[];autosize=1;strokeColor=#660000;fillColor=none;fontColor=#FF8000;fontSize=30;strokeWidth=10;" vertex="1" parent="1">
                    <mxGeometry x="-40.5" y="191" width="101" height="48" as="geometry"/>
                </mxCell>
                <mxCell id="57" value="&lt;font color=&quot;#ff8000&quot; style=&quot;font-size: 30px;&quot;&gt;DATA CENTER&lt;/font&gt;" style="text;html=1;align=center;verticalAlign=middle;resizable=0;points=[];autosize=1;strokeColor=#660000;fillColor=none;fontColor=#FFFFFF;fontSize=30;strokeWidth=10;" vertex="1" parent="1">
                    <mxGeometry x="2983" y="-498" width="224" height="48" as="geometry"/>
                </mxCell>
            </root>
        </mxGraphModel>
    </diagram>
</mxfile>